<svg width="230" height="225" viewBox="0 0 230 225" fill="none" xmlns="http://www.w3.org/2000/svg">
<path d="M34.8034 85.3683L114.168 223.5H85.088L2.06867 84.6073L17.4572 57.914H146.68H147.547L147.98 57.1631L164.241 28.9562L165.538 26.707H162.941H35.3963L49.3467 1.5H177.685L193.081 28.2048L128.471 139.627L128.002 140.436L128.522 141.213L147.385 169.42L148.722 171.42L149.929 169.338L213.673 59.4107L228.207 84.6222L149.306 221.946L134.984 196.067L134.976 196.054L134.969 196.041L69.924 83.8685L69.4905 83.121H68.6264H36.104H33.5122L34.8034 85.3683ZM114.804 113.567L116.198 116.027L117.453 113.494L131.112 85.9432L132.186 83.777H129.769H100.498H97.9243L99.1932 86.0164L114.804 113.567Z" fill="url(#paint0_linear_425_1473)" stroke="#F94432" stroke-width="3"/>
<defs>
<linearGradient id="paint0_linear_425_1473" x1="115.133" y1="112.5" x2="115.133" y2="225" gradientUnits="userSpaceOnUse">
<stop stop-color="#1C0200"/>
<stop offset="1" stop-color="#1C0200" stop-opacity="0.5"/>
</linearGradient>
</defs>
</svg>
